<?xml version="1.0" encoding="UTF-8"?> <!-- Generator: Adobe Illustrator 24.1.2, SVG Export Plug-In . SVG Version: 6.00 Build 0) --> <svg xmlns="http://www.w3.org/2000/svg" xmlns:xlink="http://www.w3.org/1999/xlink" version="1.1" id="LOGO" x="0px" y="0px" viewBox="0 0 612 165" style="enable-background:new 0 0 612 165;" xml:space="preserve"> <style type="text/css"> .st0{display:none;} .st1{fill:#6D6D6C;} .st2{fill:#72C9F2;} .st3{fill:#2C4B64;} .st4{fill:#2C73A1;} .st5{fill:#234258;} .st6{fill:#234760;} .st7{fill:#4DA9DD;} .st8{fill:#85C4ED;} .st9{fill:#254970;} .st10{fill:#3D9FD7;} </style> <g id="_x3C_Path_x3E__5_"> </g> <g id="_x3C_Path_x3E__6_" class="st0"> <image style="display:inline;overflow:visible;" width="666" height="250" id="logo-final_xA0_Image_1_" transform="matrix(0.9999 0 0 0.9999 -39.5 104.2852)"> </image> </g> <g> <path class="st1" d="M169,94.7c0,2.4,0.6,4.6,1.9,6.7c1.3,2.1,3,3.9,5.1,5.5c2.2,1.6,4.7,2.8,7.6,3.7c2.9,0.9,6,1.3,9.3,1.3 c3.3,0,6.4-0.4,9.3-1.2c2.9-0.8,5.4-2,7.6-3.5c2.2-1.5,3.9-3.3,5.1-5.5c1.3-2.1,1.9-4.5,1.9-7.1c0-2.6-0.6-4.8-1.9-6.7 c-1.3-1.9-3-3.5-5.1-4.9c-2.2-1.4-4.7-2.5-7.6-3.4c-2.9-0.9-6-1.6-9.3-2.2c-3.6-0.6-7-1.4-10.1-2.4c-3.1-1-5.9-2.4-8.3-4 c-2.4-1.6-4.2-3.6-5.6-5.9c-1.4-2.3-2-5-2-8c0-3.1,0.7-5.8,2-8.3c1.4-2.5,3.2-4.6,5.6-6.4c2.3-1.8,5.1-3.2,8.3-4.1 c3.2-1,6.5-1.4,10.1-1.4c3.6,0,7,0.5,10.1,1.6c3.2,1.1,5.9,2.5,8.3,4.3c2.3,1.8,4.2,4,5.6,6.5c1.4,2.5,2,5.1,2,7.9h-4.1 c0-2.2-0.6-4.3-1.7-6.3c-1.2-2-2.7-3.7-4.7-5.1c-2-1.4-4.3-2.6-6.9-3.4s-5.5-1.3-8.6-1.3s-5.9,0.4-8.6,1.1c-2.7,0.7-5,1.8-6.9,3.2 c-2,1.4-3.5,3.1-4.7,5.1c-1.2,2-1.7,4.2-1.7,6.6c0,2.4,0.6,4.4,1.8,6.3c1.2,1.8,2.8,3.4,4.8,4.6c2,1.3,4.3,2.4,7,3.2 c2.7,0.9,5.4,1.5,8.4,1.9c3.9,0.6,7.5,1.5,10.9,2.6c3.4,1.1,6.4,2.5,8.9,4.2c2.5,1.7,4.6,3.8,6,6.2c1.5,2.4,2.2,5.2,2.2,8.4 s-0.7,6.1-2.2,8.8c-1.5,2.7-3.5,4.9-6,6.8c-2.5,1.9-5.5,3.3-8.9,4.3c-3.4,1-7,1.5-10.9,1.5c-3.9,0-7.5-0.6-10.9-1.7 c-3.4-1.1-6.4-2.7-8.9-4.6c-2.5-1.9-4.6-4.2-6-6.8c-1.5-2.6-2.2-5.4-2.2-8.4H169z"></path> </g> <g> <path class="st1" d="M248.5,111.3c3.9,0,7.1-0.8,9.6-2.5c2.5-1.7,4.8-3.9,6.8-6.6l3.2,2.9c-2.3,3.2-5,5.8-8.2,7.6 c-3.1,1.9-6.9,2.8-11.4,2.8c-3.4,0-6.5-0.7-9.3-2.2c-2.8-1.5-5.2-3.4-7.2-5.9c-2-2.5-3.6-5.4-4.7-8.8c-1.1-3.4-1.7-7-1.7-10.8 c0-3.8,0.6-7.5,1.7-10.8c1.1-3.4,2.7-6.3,4.7-8.8c2-2.5,4.4-4.5,7.2-5.9c2.8-1.5,5.9-2.2,9.3-2.2c3.4,0,6.5,0.7,9.3,2.2 c2.8,1.5,5.2,3.4,7.2,5.9c2,2.5,3.6,5.4,4.7,8.8c1.1,3.4,1.7,7,1.7,10.8v2.1h-41.7c0.2,3,0.8,5.8,1.8,8.4c1,2.6,2.3,4.9,3.9,6.8 c1.6,1.9,3.6,3.4,5.8,4.5C243.3,110.7,245.8,111.3,248.5,111.3z M248.5,64.3c-2.7,0-5.2,0.6-7.4,1.7c-2.2,1.1-4.1,2.6-5.8,4.5 c-1.6,1.9-2.9,4.2-3.9,6.8c-1,2.6-1.6,5.4-1.8,8.4h37.6c-0.2-3-0.8-5.8-1.7-8.4c-1-2.6-2.2-4.9-3.9-6.8c-1.6-1.9-3.6-3.4-5.8-4.5 C253.7,64.8,251.2,64.3,248.5,64.3z"></path> </g> <g> <path class="st1" d="M355.4,114.5h-4.1V80.1c0-2.2-0.4-4.3-1.2-6.2c-0.8-1.9-1.9-3.6-3.2-5c-1.4-1.4-3-2.5-4.8-3.4 c-1.8-0.8-3.8-1.2-5.9-1.2c-2.3,0-4.5,0.5-6.6,1.4c-2.1,0.9-3.9,2.2-5.5,3.8c-1.6,1.6-2.8,3.5-3.7,5.7c-0.9,2.2-1.4,4.5-1.4,7v32.3 H315V80.1c0-2.2-0.4-4.3-1.2-6.2c-0.8-1.9-1.9-3.6-3.2-5c-1.4-1.4-3-2.5-4.8-3.4c-1.8-0.8-3.8-1.2-5.9-1.2c-2.3,0-4.5,0.5-6.6,1.4 c-2.1,0.9-3.9,2.2-5.5,3.8c-1.6,1.6-2.8,3.5-3.7,5.7c-0.9,2.2-1.4,4.5-1.4,7v32.3h-4.1V61.1h4.1v9.2c1.8-3.1,4.1-5.5,7-7.4 c2.9-1.9,6.3-2.8,10.1-2.8c3.9,0,7.4,1.1,10.5,3.3c3.1,2.2,5.5,5.1,7,8.5c1.8-3.6,4.3-6.4,7.6-8.6c3.3-2.2,7-3.3,11.1-3.3 c2.7,0,5.1,0.5,7.4,1.6c2.3,1.1,4.3,2.5,6.1,4.3s3.1,3.9,4.1,6.4c1,2.4,1.5,5,1.5,7.8V114.5z"></path> </g> <g> <path class="st1" d="M366.3,65.3c1.8-1.4,4.1-2.7,6.9-3.7c2.8-1.1,5.9-1.6,9.4-1.6c2.8,0,5.4,0.4,7.8,1.2c2.4,0.8,4.6,1.9,6.4,3.5 c1.8,1.5,3.3,3.5,4.3,5.8c1.1,2.4,1.6,5.1,1.6,8.1v35.9h-4.1v-6.7c-0.8,1-1.8,2-3,2.9c-1.2,1-2.4,1.8-3.8,2.5 c-1.4,0.7-2.9,1.3-4.5,1.7c-1.6,0.4-3.2,0.6-4.8,0.6c-2.8,0-5.4-0.4-7.8-1.3c-2.4-0.9-4.6-2.1-6.4-3.6c-1.8-1.5-3.3-3.3-4.3-5.3 c-1.1-2-1.6-4.2-1.6-6.6c0-2.4,0.6-4.5,1.7-6.6c1.2-2,2.8-3.8,4.8-5.3c2-1.5,4.4-2.7,7.1-3.6c2.7-0.9,5.6-1.3,8.6-1.3h14.1v-3.2 c0-2.5-0.4-4.6-1.3-6.5c-0.8-1.8-2-3.3-3.5-4.5c-1.5-1.2-3.2-2-5.1-2.6c-1.9-0.5-4-0.8-6.3-0.8c-3.1,0-5.7,0.4-7.8,1.3 c-2.2,0.9-4,1.8-5.5,2.8L366.3,65.3z M384.7,86.1c-2.5,0-4.9,0.3-7.1,1c-2.2,0.7-4.1,1.6-5.8,2.7c-1.6,1.1-2.9,2.5-3.9,4 c-1,1.5-1.4,3.2-1.4,4.9s0.4,3.3,1.3,4.9c0.8,1.5,2,2.9,3.5,4c1.5,1.1,3.2,2,5.1,2.7c1.9,0.7,4,1,6.3,1c2.2,0,4.2-0.3,6.1-1 c1.9-0.6,3.6-1.5,5-2.6c1.5-1.1,2.6-2.3,3.5-3.8c0.8-1.5,1.3-3,1.5-4.8V86.1H384.7z"></path> </g> <g> <path class="st1" d="M454.4,114.5h-4.1V80.1c0-2.2-0.4-4.3-1.2-6.2c-0.8-1.9-1.9-3.6-3.2-5c-1.4-1.4-3-2.5-4.8-3.4 c-1.8-0.8-3.8-1.2-5.9-1.2c-2.3,0-4.5,0.5-6.6,1.4c-2.1,0.9-3.9,2.2-5.5,3.8c-1.6,1.6-2.8,3.5-3.7,5.7c-0.9,2.2-1.4,4.5-1.4,7v32.3 H414V61.1h4.1v9.2c1.8-3.1,4.1-5.5,7-7.4c2.9-1.9,6.3-2.8,10.1-2.8c2.7,0,5.1,0.5,7.4,1.6c2.3,1.1,4.3,2.5,6.1,4.3 c1.7,1.8,3.1,3.9,4.1,6.4c1,2.4,1.5,5,1.5,7.8V114.5z"></path> </g> <g> <path class="st1" d="M457.3,61.1h9.2V39.7l4.1-1.1v22.4h10.2v4.3h-10.2v34.2c0,3,1,5.5,3,7.6c2,2.1,4.4,3.1,7.2,3.1v4.3 c-2,0-3.8-0.4-5.6-1.2c-1.7-0.8-3.2-1.9-4.5-3.2c-1.3-1.4-2.3-2.9-3.1-4.8c-0.7-1.8-1.1-3.8-1.1-5.8V65.3h-9.2V61.1z"></path> </g> <g> <path class="st1" d="M495,38.6h4.1v10.7H495V38.6z M495,61.1h4.1v53.4H495V61.1z"></path> </g> <g> <path class="st1" d="M536.8,87.8l18.3,26.7h-5l-15.9-23.1l-15.8,23.1h-5l18.3-26.7l-18.3-26.7h5l15.8,23.1l15.9-23.1h5L536.8,87.8z "></path> </g> <polygon class="st2" points="136.6,62.4 127.9,136.1 98.3,104.1 "></polygon> <polygon class="st3" points="140.2,25.3 136.6,62.4 104.4,46.2 "></polygon> <polygon class="st3" points="67.7,72.3 40.3,35.5 56.4,13.3 "></polygon> <polyline class="st4" points="136.6,62.4 56.3,13.3 66.2,70.3 75.4,111.3 "></polyline> <polygon class="st5" points="111.2,112 55.2,112 27.1,101.7 66.2,70.3 "></polygon> <polyline class="st6" points="66.2,70.3 75.4,112 75.4,112 111.3,112 "></polyline> <polygon class="st7" points="136.6,62.4 111.3,112 66.2,70.3 "></polygon> <polygon class="st8" points="56.4,13.3 140.2,25.3 107.4,44.5 "></polygon> <polygon class="st9" points="17.8,100.5 56.3,70.5 28.3,33.7 "></polygon> <polygon class="st10" points="111.2,112 128,136 55.2,112 "></polygon> </svg> 